<svg width="409" height="184" viewBox="0 0 409 184" fill="none" xmlns="http://www.w3.org/2000/svg">
<ellipse cx="405.12" cy="3.11224" rx="3.02593" ry="3.04601" transform="rotate(90 405.12 3.11224)" fill="#29AAF3"/>
<ellipse cx="405.12" cy="47.4924" rx="3.02593" ry="3.04601" transform="rotate(90 405.12 47.4924)" fill="#29AAF3"/>
<ellipse cx="405.12" cy="91.8727" rx="3.02593" ry="3.04601" transform="rotate(90 405.12 91.8727)" fill="#29AAF3"/>
<ellipse cx="405.12" cy="136.253" rx="3.02593" ry="3.04601" transform="rotate(90 405.12 136.253)" fill="#29AAF3"/>
<ellipse cx="405.12" cy="180.633" rx="3.02593" ry="3.04601" transform="rotate(90 405.12 180.633)" fill="#29AAF3"/>
<ellipse cx="360.446" cy="3.11199" rx="3.02593" ry="3.04601" transform="rotate(90 360.446 3.11199)" fill="#29AAF3"/>
<ellipse cx="360.446" cy="47.4924" rx="3.02593" ry="3.04601" transform="rotate(90 360.446 47.4924)" fill="#29AAF3"/>
<ellipse cx="360.446" cy="91.8727" rx="3.02593" ry="3.04601" transform="rotate(90 360.446 91.8727)" fill="#29AAF3"/>
<ellipse cx="360.446" cy="136.253" rx="3.02593" ry="3.04601" transform="rotate(90 360.446 136.253)" fill="#29AAF3"/>
<ellipse cx="360.446" cy="180.633" rx="3.02593" ry="3.04601" transform="rotate(90 360.446 180.633)" fill="#29AAF3"/>
<ellipse cx="315.77" cy="3.11199" rx="3.02593" ry="3.04601" transform="rotate(90 315.77 3.11199)" fill="#29AAF3"/>
<ellipse cx="315.77" cy="47.4924" rx="3.02593" ry="3.04601" transform="rotate(90 315.77 47.4924)" fill="#29AAF3"/>
<ellipse cx="315.77" cy="91.8727" rx="3.02593" ry="3.04601" transform="rotate(90 315.77 91.8727)" fill="#29AAF3"/>
<ellipse cx="315.77" cy="136.253" rx="3.02593" ry="3.04601" transform="rotate(90 315.77 136.253)" fill="#29AAF3"/>
<ellipse cx="315.77" cy="180.633" rx="3.02593" ry="3.04601" transform="rotate(90 315.77 180.633)" fill="#29AAF3"/>
<ellipse cx="271.096" cy="3.11199" rx="3.02593" ry="3.04601" transform="rotate(90 271.096 3.11199)" fill="#29AAF3"/>
<ellipse cx="271.096" cy="47.4924" rx="3.02593" ry="3.04601" transform="rotate(90 271.096 47.4924)" fill="#29AAF3"/>
<ellipse cx="271.096" cy="91.8727" rx="3.02593" ry="3.04601" transform="rotate(90 271.096 91.8727)" fill="#29AAF3"/>
<ellipse cx="271.096" cy="136.253" rx="3.02593" ry="3.04601" transform="rotate(90 271.096 136.253)" fill="#29AAF3"/>
<ellipse cx="271.096" cy="180.633" rx="3.02593" ry="3.04601" transform="rotate(90 271.096 180.633)" fill="#29AAF3"/>
<ellipse cx="226.42" cy="3.11199" rx="3.02593" ry="3.04601" transform="rotate(90 226.42 3.11199)" fill="#29AAF3"/>
<ellipse cx="226.421" cy="47.4924" rx="3.02593" ry="3.04601" transform="rotate(90 226.421 47.4924)" fill="#29AAF3"/>
<ellipse cx="226.421" cy="91.8727" rx="3.02593" ry="3.04601" transform="rotate(90 226.421 91.8727)" fill="#29AAF3"/>
<ellipse cx="226.421" cy="136.253" rx="3.02593" ry="3.04601" transform="rotate(90 226.421 136.253)" fill="#29AAF3"/>
<ellipse cx="226.421" cy="180.633" rx="3.02593" ry="3.04601" transform="rotate(90 226.421 180.633)" fill="#29AAF3"/>
<ellipse cx="181.745" cy="3.11199" rx="3.02593" ry="3.04601" transform="rotate(90 181.745 3.11199)" fill="#29AAF3"/>
<ellipse cx="181.745" cy="47.4924" rx="3.02593" ry="3.04601" transform="rotate(90 181.745 47.4924)" fill="#29AAF3"/>
<ellipse cx="181.745" cy="91.8727" rx="3.02593" ry="3.04601" transform="rotate(90 181.745 91.8727)" fill="#29AAF3"/>
<ellipse cx="181.745" cy="136.253" rx="3.02593" ry="3.04601" transform="rotate(90 181.745 136.253)" fill="#29AAF3"/>
<ellipse cx="181.745" cy="180.633" rx="3.02593" ry="3.04601" transform="rotate(90 181.745 180.633)" fill="#29AAF3"/>
<ellipse cx="137.071" cy="3.11199" rx="3.02593" ry="3.04601" transform="rotate(90 137.071 3.11199)" fill="#29AAF3"/>
<ellipse cx="137.071" cy="47.4924" rx="3.02593" ry="3.04601" transform="rotate(90 137.071 47.4924)" fill="#29AAF3"/>
<ellipse cx="137.071" cy="91.8727" rx="3.02593" ry="3.04601" transform="rotate(90 137.071 91.8727)" fill="#29AAF3"/>
<ellipse cx="137.071" cy="136.253" rx="3.02593" ry="3.04601" transform="rotate(90 137.071 136.253)" fill="#29AAF3"/>
<ellipse cx="137.071" cy="180.633" rx="3.02593" ry="3.04601" transform="rotate(90 137.071 180.633)" fill="#29AAF3"/>
<ellipse cx="92.3959" cy="3.11199" rx="3.02593" ry="3.04601" transform="rotate(90 92.3959 3.11199)" fill="#29AAF3"/>
<ellipse cx="92.3959" cy="47.4924" rx="3.02593" ry="3.04601" transform="rotate(90 92.3959 47.4924)" fill="#29AAF3"/>
<ellipse cx="92.3959" cy="91.8727" rx="3.02593" ry="3.04601" transform="rotate(90 92.3959 91.8727)" fill="#29AAF3"/>
<ellipse cx="92.3959" cy="136.253" rx="3.02593" ry="3.04601" transform="rotate(90 92.3959 136.253)" fill="#29AAF3"/>
<ellipse cx="92.3959" cy="180.633" rx="3.02593" ry="3.04601" transform="rotate(90 92.3959 180.633)" fill="#29AAF3"/>
<ellipse cx="47.7211" cy="3.11199" rx="3.02593" ry="3.04601" transform="rotate(90 47.7211 3.11199)" fill="#29AAF3"/>
<ellipse cx="47.7211" cy="47.4924" rx="3.02593" ry="3.04601" transform="rotate(90 47.7211 47.4924)" fill="#29AAF3"/>
<ellipse cx="47.7211" cy="91.8727" rx="3.02593" ry="3.04601" transform="rotate(90 47.7211 91.8727)" fill="#29AAF3"/>
<ellipse cx="47.7211" cy="136.253" rx="3.02593" ry="3.04601" transform="rotate(90 47.7211 136.253)" fill="#29AAF3"/>
<ellipse cx="47.7211" cy="180.633" rx="3.02593" ry="3.04601" transform="rotate(90 47.7211 180.633)" fill="#29AAF3"/>
<ellipse cx="3.04578" cy="3.11199" rx="3.02593" ry="3.04601" transform="rotate(90 3.04578 3.11199)" fill="#29AAF3"/>
<ellipse cx="3.04578" cy="47.4925" rx="3.02593" ry="3.04601" transform="rotate(90 3.04578 47.4925)" fill="#29AAF3"/>
<ellipse cx="3.04578" cy="91.8727" rx="3.02593" ry="3.04601" transform="rotate(90 3.04578 91.8727)" fill="#29AAF3"/>
<ellipse cx="3.04578" cy="136.253" rx="3.02593" ry="3.04601" transform="rotate(90 3.04578 136.253)" fill="#29AAF3"/>
<ellipse cx="3.04578" cy="180.633" rx="3.02593" ry="3.04601" transform="rotate(90 3.04578 180.633)" fill="#29AAF3"/>
</svg>
